<?xml version="1.0" encoding="utf-8"?>
<!-- Svg Vector Icons : http://www.onlinewebfonts.com/icon -->
<!DOCTYPE svg PUBLIC "-//W3C//DTD SVG 1.1//EN" "http://www.w3.org/Graphics/SVG/1.1/DTD/svg11.dtd">
<svg version="1.1" xmlns="http://www.w3.org/2000/svg" xmlns:xlink="http://www.w3.org/1999/xlink" x="0px" y="0px" viewBox="0 0 1000 1000" enable-background="new 0 0 1000 1000" xml:space="preserve">
<metadata> Svg Vector Icons : http://www.onlinewebfonts.com/icon </metadata>
<g><g transform="translate(0.000000,511.000000) scale(0.100000,-0.100000)"><path d="M9242.1,4812.7L9038,4611.2l-96.8,94.2c-146.5,136.1-204.1,162.2-290.4,120.4c-55-26.2-73.3-54.9-78.5-125.6c-5.2-78.5,7.9-107.3,99.4-196.2c57.6-55,104.7-115.1,104.7-130.8c0-34-188.4-222.4-222.4-222.4c-13.1,0-73.3,49.7-133.4,107.3c-120.4,117.7-219.8,141.3-293.1,68c-75.9-78.5-49.7-193.6,75.9-321.8l115.1-115.1L6602,2172.6L4882.9,453.5l-240.7,162.2c-384.6,251.2-805.9,389.9-1099,361.1c-379.4-41.9-609.7-266.9-745.7-737.9c-81.1-285.2-162.2-426.5-293.1-518.1c-154.4-107.3-251.2-138.7-701.2-227.7C1572.9-553.9,1287.7-627.2,1170-669c-371.5-133.4-764-423.9-918.4-680.3c-361.1-604.4-60.2-1617,724.8-2433.4c777.1-811.1,1747.9-1185.3,2422.9-934.1c125.6,44.5,196.2,96.8,353.2,256.4c353.2,355.8,484.1,638.4,641.1,1392c143.9,688.2,238.1,821.6,672.5,952.4c300.9,89,450,164.8,578.3,290.4c128.2,125.6,201.5,266.9,219.8,426.5c13.1,107.3,5.2,136-44.5,185.8c-41.9,41.9-75.9,52.3-125.6,41.9c-266.9-60.2-507.6-75.9-709.1-47.1c-319.2,44.5-473.6,146.5-473.6,314c0,23.6,962.9,1007.4,2137.7,2182.2l2137.7,2137.7l125.6-115.1c143.9-138.7,227.6-149.2,306.1-49.7c31.4,39.3,54.9,86.3,54.9,107.3c0,20.9-54.9,94.2-123,167.5l-123,130.8l120.4,117.7l117.7,120.4l115.1-107.3c146.5-136.1,196.3-151.8,282.6-89c112.5,83.7,102,172.7-34,314l-117.7,125.6l196.3,198.9c251.2,259,251.2,287.8,28.8,512.9c-112.5,112.5-185.8,164.8-230.3,164.8C9461.9,5014.2,9380.8,4954,9242.1,4812.7z M3870.3,605.2c201.5-52.3,402.9-146.5,609.7-280L4644.8,218l-518.1-520.7c-285.2-285.2-528.5-518.1-541.6-518.1c-10.5,0-62.8,36.6-112.5,78.5c-47.1,44.5-107.3,78.5-128.2,78.5c-23.5,0-123-78.5-222.4-175.3c-128.2-123-180.5-191-180.5-238.1c0-49.7,96.8-164.8,397.7-468.4c484.1-486.7,478.8-486.7,722.2-232.9c188.4,193.6,198.9,251.2,78.5,374.2l-83.7,86.3l73.3,75.9l70.7,75.9l125.6-125.6c81.1-78.5,175.3-143.9,272.1-177.9c177.9-68,588.7-120.4,735.2-99.4l104.7,18.3l-52.3-57.5c-68-75.9-149.1-112.5-384.6-177.9c-282.6-75.9-429.1-157-575.6-314c-157-167.5-238.1-340.2-306.1-648.9c-28.8-133.4-78.5-358.5-107.3-497.1c-91.6-423.9-225-696-476.2-968.1c-154.4-167.5-277.4-225-531.2-238.1c-782.4-41.9-1839.4,698.6-2318.3,1630.1c-175.3,340.2-240.7,578.3-243.3,863.5c0,185.8,10.5,261.7,55,355.8c102,219.8,457.9,502.4,787.6,625.4c75.9,28.8,337.5,91.6,578.3,141.3C2371-731.8,2535.8-674.3,2721.6-533c211.9,159.6,293,306.1,413.4,735.3c49.7,177.9,175.3,355.9,285.2,402.9C3530.1,654.9,3681.9,652.3,3870.3,605.2z"/><path d="M2266.3-1665.9c-47.1-47.1-83.7-96.8-83.7-112.5c0-13.1,206.7-230.3,457.9-481.5l457.9-455.3l104.7,102.1c57.6,54.9,104.7,115.1,104.7,130.8c0,41.9-873.9,902.7-918.4,902.7C2368.4-1579.6,2313.4-1618.9,2266.3-1665.9z"/><path d="M1795.3-2136.9c-47.1-47.1-83.7-96.8-83.7-112.5c0-13.1,206.7-230.3,457.9-481.5l457.9-455.3l104.7,102.1c57.6,54.9,104.7,115.1,104.7,130.8c0,41.9-873.9,902.7-918.4,902.7C1897.4-2050.6,1842.4-2089.8,1795.3-2136.9z"/><path d="M3169-3510.6c-104.7-115.1-15.7-277.4,141.3-261.7c149.1,13.1,193.6,204.1,65.4,287.8C3323.4-3447.9,3210.9-3463.5,3169-3510.6z"/><path d="M2462.6-3746.1c-96.8-107.3-28.8-266.9,112.5-266.9c94.2,0,157,60.2,157,154.4C2732.1-3717.4,2554.1-3644.1,2462.6-3746.1z"/></g></g>
</svg>